<?xml version="1.0" standalone="no"?><!DOCTYPE svg PUBLIC "-//W3C//DTD SVG 1.1//EN" "http://www.w3.org/Graphics/SVG/1.1/DTD/svg11.dtd"><svg t="1710489700866" class="icon" viewBox="0 0 1024 1024" version="1.1" xmlns="http://www.w3.org/2000/svg" p-id="987" xmlns:xlink="http://www.w3.org/1999/xlink" width="200" height="200"><path d="M64 757.312h301.12v89.152H64v-89.152z m0-312.192h387.136v89.152H64V445.12z m0-312.192h860.288V222.08H64V132.928z m803.2 402.496l49.792-17.472L960 595.2l-39.424 35.904a185.408 185.408 0 0 1 0 73.92l39.424 35.968-43.008 77.184-49.728-17.408a170.56 170.56 0 0 1-61.76 36.992l-10.24 53.312h-86.016l-10.304-53.312a170.56 170.56 0 0 1-61.76-36.992l-49.728 17.408-43.008-77.248 39.424-35.84a185.408 185.408 0 0 1 0-73.984l-39.424-35.84 43.008-77.312 49.728 17.472c17.664-16.448 38.656-29.184 61.76-36.992l10.24-53.312h86.08l10.24 53.312c23.104 7.808 44.096 20.48 61.76 36.992z m-114.944 221.888c47.488 0 86.016-39.936 86.016-89.216 0-49.28-38.528-89.216-86.016-89.216-47.552 0-86.08 39.936-86.08 89.216 0 49.28 38.528 89.216 86.08 89.216z" p-id="988"></path></svg>