<?xml version="1.0" standalone="no"?><!DOCTYPE svg PUBLIC "-//W3C//DTD SVG 1.1//EN" "http://www.w3.org/Graphics/SVG/1.1/DTD/svg11.dtd"><svg t="1710576083376" class="icon" viewBox="0 0 1024 1024" version="1.1" xmlns="http://www.w3.org/2000/svg" p-id="1016" xmlns:xlink="http://www.w3.org/1999/xlink" width="200" height="200"><path d="M702.725 84.067L822.78 204.92l0.1 0.1 0.1 0.1 0.7 0.7 0.1 0.1 0.1 0.1L944.53 325.873H896.95c-28.19 0-54.879 12.295-73.072 33.787L629.554 588.17c-26.79 31.488-42.883 71.472-45.382 112.756l-5.398 89.265-340.367-340.467 89.265-5.398c41.184-2.499 81.268-18.592 112.756-45.382l228.51-194.324c21.492-18.293 33.787-44.882 33.787-73.071V84.067zM690.33 4.598c-8.996 0-18.093 2.2-26.39 6.698-15.293 8.396-27.689 24.49-25.19 55.178v65.075a31.903 31.903 0 0 1-11.295 24.39l-228.51 194.324c-21.093 17.993-47.482 28.589-75.171 30.288l-111.257 6.698c-15.594 0.9-30.588 6.997-41.984 17.693-7.797 7.397-14.594 17.293-15.793 30.288-1.2 12.795 3.698 25.39 12.795 34.487l0.2 0.2 149.541 147.542L6.897 1021 4.598 1024l2.999-2.3 403.542-310.378 147.543 149.542 0.2 0.2c8.196 8.196 19.192 12.995 30.688 12.995 1.3 0 2.599-0.1 3.798-0.2 12.895-1.2 22.891-7.997 30.288-15.794 10.696-11.396 16.794-26.39 17.693-41.984l6.698-111.256c1.7-27.69 12.295-54.08 30.288-75.171l194.324-228.51a31.903 31.903 0 0 1 24.39-11.296h65.075c2.7 0.2 5.298 0.3 7.797 0.3 25.69 0 39.785-11.496 47.382-25.49 11.995-21.892 7.497-49.181-10.096-66.774l-0.1-0.1L868.86 160.437l-0.7-0.7L730.815 21.593l-0.1-0.1c-10.996-10.996-25.59-16.894-40.385-16.894z" p-id="1017"></path></svg>