<?xml version="1.0" encoding="UTF-8"?>
<svg width="284px" height="59px" viewBox="0 0 284 59" version="1.1" xmlns="http://www.w3.org/2000/svg" xmlns:xlink="http://www.w3.org/1999/xlink">
    <title>编组 2</title>
    <g id="页面-1" stroke="none" stroke-width="1" fill="none" fill-rule="evenodd">
        <g id="编组-2" transform="translate(0.344751, 3.027158)">
            <g id="Dynamic" transform="translate(66.815249, 10.197625)" fill="#20A0FF" fill-rule="nonzero">
                <polygon id="路径" points="30.6 26.73 27.1564103 31.104 0 31.104 0 0.054 23.2906174 0.054 19.3191499 4.32 6.96788327 4.32 6.96788327 26.946 23.2906174 26.946 23.2906174 0.054 27.4615385 0.054 30.6 4.104"></polygon>
                <polygon id="路径" points="51.7828484 23.5925652 59.0640342 9.288 67.2 9.288 51.7828484 39.42 43.4612976 39.42 47.8774478 31.104 36.6 9.288 45.3131492 9.288"></polygon>
                <path d="M99.4,30.942 L91.7651635,30.942 L91.7651635,9.18 L99.4,9.18 L99.4,30.942 Z M80.7173898,13.068 L80.7173898,30.942 L73.2,30.942 L73.2,9.18 L91.7651635,9.18 L87.5825175,13.068 L80.7173898,13.068 Z" id="形状"></path>
                <polygon id="路径" points="131.665359 31.05 105.4 31.05 105.4 9.234 123.964367 9.234 120.435294 12.96 112.683756 12.96 112.683756 27.432 123.964367 27.432 123.964367 9.234 131.108497 9.234 131.108497 27.432 133.8 27.432"></polygon>
                <path d="M146.516336,31.05 L139.8,30.942 L139.8,9.18 L166.683252,9.18 L163.203046,13.068 L159.649973,13.176 L159.649973,31.05 L153.603969,30.942 L153.603969,13.068 L146.516336,13.176 L146.516336,31.05 Z M173.7,30.942 L166.683252,30.942 L166.683252,9.18 L173.7,9.18 L173.7,30.942 Z" id="形状"></path>
                <path d="M179.7,0 L186.7,0 L186.7,6.696 L179.7,6.696 L179.7,0 Z M186.7,31.05 L179.7,31.05 L179.7,9.234 L186.7,9.234 L186.7,31.05 Z" id="形状"></path>
                <polygon id="路径" points="192.7 31.05 192.7 9.234 215.9 9.234 214.181481 14.2100915 199.341149 14.2100915 199.341149 26.049359 215.067758 26.049359 214.181481 31.05"></polygon>
            </g>
            <g id="编组">
                <path d="M27.4076245,0.577350269 L48.2772982,12.626462 C48.8961004,12.9837276 49.2772982,13.6439816 49.2772982,14.3585128 L49.2772982,38.4567363 C49.2772982,39.1712674 48.8961004,39.8315215 48.2772982,40.1887871 L27.4076245,52.2378988 C26.7888224,52.5951644 26.0264267,52.5951644 25.4076245,52.2378988 L4.53795083,40.1887871 C3.91914868,39.8315215 3.53795083,39.1712674 3.53795083,38.4567363 L3.53795083,14.3585128 C3.53795083,13.6439816 3.91914868,12.9837276 4.53795083,12.626462 L25.4076245,0.577350269 C26.0264267,0.220084679 26.7888224,0.220084679 27.4076245,0.577350269 Z" id="多边形" stroke="#20A0FF" stroke-width="5.8"></path>
                <rect id="矩形" fill="#20A0FF" transform="translate(20.778459, 22.352707) rotate(-60.000000) translate(-20.778459, -22.352707) " x="18.2784594" y="14.9694086" width="5" height="14.7665965" rx="2.5"></rect>
                <rect id="矩形备份" fill="#20A0FF" transform="translate(32.036790, 22.352707) scale(-1, 1) rotate(-60.000000) translate(-32.036790, -22.352707) " x="29.5367897" y="14.9694086" width="5" height="14.7665965" rx="2.5"></rect>
                <rect id="矩形备份-2" fill="#20A0FF" transform="translate(26.638024, 32.547901) scale(-1, 1) rotate(-360.000000) translate(-26.638024, -32.547901) " x="24.1380235" y="25.164603" width="5" height="14.7665965" rx="2.5"></rect>
            </g>
        </g>
    </g>
</svg>