<?xml version="1.0" encoding="utf-8"?>
<!-- Generator: Adobe Illustrator 24.1.0, SVG Export Plug-In . SVG Version: 6.00 Build 0)  -->
<svg version="1.1" id="图层_1" xmlns="http://www.w3.org/2000/svg" xmlns:xlink="http://www.w3.org/1999/xlink" x="0px" y="0px"
	 viewBox="0 0 16 16" enable-background="new 0 0 16 16" xml:space="preserve">
<g opacity="0.3">
	<path  d="M13,1H3C2.4,1,2,1.4,2,2v12c0,0.6,0.4,1,1,1h7l4-4V2C14,1.4,13.6,1,13,1z"/>
</g>
<path opacity="0.3"  d="M10,15v-3c0-0.6,0.4-1,1-1h3L10,15z"/>
<g>
	<path  d="M4.5,5h7C11.8,5,12,4.8,12,4.5S11.8,4,11.5,4h-7C4.2,4,4,4.2,4,4.5S4.2,5,4.5,5z"/>
	<path  d="M11.5,6h-7C4.2,6,4,6.2,4,6.5S4.2,7,4.5,7h7C11.8,7,12,6.8,12,6.5S11.8,6,11.5,6z"/>
	<path  d="M7.5,8h-3C4.2,8,4,8.2,4,8.5S4.2,9,4.5,9h3C7.8,9,8,8.8,8,8.5S7.8,8,7.5,8z"/>
</g>
</svg>
