<?xml version="1.0" encoding="utf-8"?>
<!-- Generator: Adobe Illustrator 24.1.0, SVG Export Plug-In . SVG Version: 6.00 Build 0)  -->
<svg version="1.1" id="图层_1" xmlns="http://www.w3.org/2000/svg" xmlns:xlink="http://www.w3.org/1999/xlink" x="0px" y="0px"
	 viewBox="0 0 16 16" enable-background="new 0 0 16 16" xml:space="preserve">
<g opacity="0.6">
	<path  d="M14,5H8.4C8.1,5,7.9,4.9,7.7,4.7L7.3,4.3C7.1,4.1,6.9,4,6.6,4H2C1.4,4,1,4.4,1,5v8c0,0.6,0.4,1,1,1h12
		c0.6,0,1-0.4,1-1V6C15,5.4,14.6,5,14,5z"/>
</g>
<g opacity="0.3">
	<path  d="M7.3,4.3l0.4,0.4C7.9,4.9,8.1,5,8.4,5H14V2c0-0.6-0.5-1-1-1H3C2.5,1,2,1.5,2,2v2h4.6C6.9,4,7.1,4.1,7.3,4.3
		z"/>
</g>
</svg>
