<?xml version="1.0" encoding="utf-8"?>
<!-- Generator: Adobe Illustrator 24.1.0, SVG Export Plug-In . SVG Version: 6.00 Build 0)  -->
<svg version="1.1" id="图层_1" xmlns="http://www.w3.org/2000/svg" xmlns:xlink="http://www.w3.org/1999/xlink" x="0px" y="0px"
	 viewBox="0 0 16 16" enable-background="new 0 0 16 16" xml:space="preserve">
<g opacity="0.6">
	<path  d="M14,3H8.4C8.1,3,7.9,2.9,7.7,2.7L7.3,2.3C7.1,2.1,6.9,2,6.6,2H2C1.4,2,1,2.4,1,3v10c0,0.6,0.4,1,1,1h12
		c0.6,0,1-0.4,1-1V4C15,3.4,14.6,3,14,3z M11.6,6H4.4C4.2,6,4,5.8,4,5.5S4.2,5,4.4,5h7.2C11.8,5,12,5.2,12,5.5S11.8,6,11.6,6z"/>
</g>
</svg>
