<?xml version="1.0" encoding="utf-8"?>
<!-- Generator: Adobe Illustrator 24.1.0, SVG Export Plug-In . SVG Version: 6.00 Build 0)  -->
<svg version="1.1" id="图层_1" xmlns="http://www.w3.org/2000/svg" xmlns:xlink="http://www.w3.org/1999/xlink" x="0px" y="0px"
	 viewBox="0 0 16 16" enable-background="new 0 0 16 16" xml:space="preserve">
<g opacity="0.3">
	<path  d="M13,1H3C2.4,1,2,1.4,2,2v12c0,0.6,0.4,1,1,1h7l4-4V2C14,1.4,13.6,1,13,1z M7.5,9h-3C4.2,9,4,8.8,4,8.5
		S4.2,8,4.5,8h3C7.8,8,8,8.2,8,8.5S7.8,9,7.5,9z M11.5,7h-7C4.2,7,4,6.8,4,6.5S4.2,6,4.5,6h7C11.8,6,12,6.2,12,6.5S11.8,7,11.5,7z
		 M11.5,5h-7C4.2,5,4,4.8,4,4.5S4.2,4,4.5,4h7C11.8,4,12,4.2,12,4.5S11.8,5,11.5,5z"/>
</g>
<path opacity="0.3"  d="M10,15v-3c0-0.6,0.4-1,1-1h3L10,15z"/>
</svg>
