<svg id="图层_1" data-name="图层 1" xmlns="http://www.w3.org/2000/svg" viewBox="0 0 32 32"><title>图标2</title><path d="M26.61,16.37l0,9.27A2.36,2.36,0,0,1,24.23,28H7.7a2.36,2.36,0,0,1-2.35-2.36v-9.3l-.56.55a.89.89,0,0,1-1.25,0,.9.9,0,0,1,0-1.21l11-11a2.05,2.05,0,0,1,2.9,0h0l11,11a.88.88,0,0,1-.05,1.25.87.87,0,0,1-1.2,0Z" style="fill:#f78077"/><polygon points="19.09 20.35 24.23 28 16.4 28.01 19.09 20.35" style="fill:#ed7977"/><rect x="12.93" y="19.91" width="6.25" height="8.09" rx="0.8" style="fill:#ffd558"/><path d="M16,19.91h2.39a.8.8,0,0,1,.8.8v6.5a.8.8,0,0,1-.8.8H16a0,0,0,0,1,0,0V19.91A0,0,0,0,1,16,19.91Z" style="fill:#ffb353"/><circle cx="14.56" cy="23.96" r="1.04" style="fill:#fff"/></svg>